<?xml version="1.0" encoding="iso-8859-1"?>
<!-- Generator: Adobe Illustrator 19.0.0, SVG Export Plug-In . SVG Version: 6.00 Build 0)  -->
<svg version="1.1" id="Layer_1" xmlns="http://www.w3.org/2000/svg" xmlns:xlink="http://www.w3.org/1999/xlink" x="0px" y="0px"
	 viewBox="0 0 505 505" style="enable-background:new 0 0 505 505;" xml:space="preserve">
<circle style="fill:#324A5E;" cx="252.5" cy="252.5" r="252.5"/>
<path style="fill:#FFFFFF;" d="M373.2,206.9h-7.7c0.2-1.9,0.3-3.8,0.3-5.7c0-35.2-28.5-63.7-63.7-63.7c-14.5,0-27.9,4.9-38.6,13.1
	c-14.5-25.1-41.6-42.1-72.7-42.1c-46.4,0-84,37.6-84,84c0,6.8,0.9,13.5,2.5,19.8c-16.7,8.2-28.1,25.3-28.1,45.2
	c0,27.9,22.7,50.6,50.6,50.6h241.5c27.9,0,50.6-22.7,50.6-50.6S401.2,206.9,373.2,206.9z"/>
<polygon style="fill:#E6E9EE;" points="148.9,372.5 137,364.1 231.8,229.1 326.6,364.1 314.6,372.5 231.8,254.5 "/>
<circle style="fill:#4CDBC4;" cx="231.8" cy="241.8" r="38.2"/>
<g>
	<circle style="fill:#84DBFF;" cx="320.6" cy="368.3" r="28.3"/>
	<circle style="fill:#84DBFF;" cx="143" cy="368.3" r="28.3"/>
</g>
<g>
</g>
<g>
</g>
<g>
</g>
<g>
</g>
<g>
</g>
<g>
</g>
<g>
</g>
<g>
</g>
<g>
</g>
<g>
</g>
<g>
</g>
<g>
</g>
<g>
</g>
<g>
</g>
<g>
</g>
</svg>
