<?xml version="1.0" encoding="UTF-8"?>
<svg xmlns="http://www.w3.org/2000/svg" xmlns:xlink="http://www.w3.org/1999/xlink" width="150pt" height="115pt" viewBox="0 0 150 115" version="1.1">
<g id="surface1">
<path style=" stroke:none;fill-rule:nonzero;fill:rgb(19.607843%,29.019608%,36.862745%);fill-opacity:1;" d="M 150 57.5 C 150 89.257812 116.421875 115 75 115 C 33.578125 115 0 89.257812 0 57.5 C 0 25.742188 33.578125 0 75 0 C 116.421875 0 150 25.742188 150 57.5 Z M 150 57.5 "/>
<path style=" stroke:none;fill-rule:nonzero;fill:rgb(100%,100%,100%);fill-opacity:1;" d="M 110.851562 47.117188 L 108.5625 47.117188 C 108.625 46.683594 108.652344 46.25 108.652344 45.816406 C 108.652344 37.800781 100.1875 31.3125 89.734375 31.3125 C 85.425781 31.3125 81.445312 32.425781 78.265625 34.296875 C 73.960938 28.578125 65.910156 24.707031 56.671875 24.707031 C 42.890625 24.707031 31.722656 33.269531 31.722656 43.835938 C 31.722656 45.386719 31.988281 46.910156 32.464844 48.34375 C 27.503906 50.210938 24.117188 54.105469 24.117188 58.636719 C 24.117188 64.992188 30.863281 70.160156 39.148438 70.160156 L 110.882812 70.160156 C 119.167969 70.160156 125.910156 64.992188 125.910156 58.636719 C 125.910156 52.285156 119.167969 47.117188 110.851562 47.117188 Z M 110.851562 47.117188 "/>
<path style=" stroke:none;fill-rule:nonzero;fill:rgb(90.196078%,91.372549%,93.333333%);fill-opacity:1;" d="M 44.226562 84.828125 L 40.691406 82.914062 L 68.851562 52.171875 L 97.011719 82.914062 L 93.445312 84.828125 L 68.851562 57.957031 Z M 44.226562 84.828125 "/>
<path style=" stroke:none;fill-rule:nonzero;fill:rgb(29.803922%,85.882353%,76.862745%);fill-opacity:1;" d="M 80.199219 55.0625 C 80.199219 59.867188 75.117188 63.761719 68.851562 63.761719 C 62.585938 63.761719 57.503906 59.867188 57.503906 55.0625 C 57.503906 50.257812 62.585938 46.363281 68.851562 46.363281 C 75.117188 46.363281 80.199219 50.257812 80.199219 55.0625 Z M 80.199219 55.0625 "/>
<path style=" stroke:none;fill-rule:nonzero;fill:rgb(51.764706%,85.882353%,100%);fill-opacity:1;" d="M 103.632812 83.871094 C 103.632812 87.429688 99.871094 90.316406 95.226562 90.316406 C 90.585938 90.316406 86.820312 87.429688 86.820312 83.871094 C 86.820312 80.3125 90.585938 77.425781 95.226562 77.425781 C 99.871094 77.425781 103.632812 80.3125 103.632812 83.871094 Z M 103.632812 83.871094 "/>
<path style=" stroke:none;fill-rule:nonzero;fill:rgb(51.764706%,85.882353%,100%);fill-opacity:1;" d="M 50.882812 83.871094 C 50.882812 87.429688 47.117188 90.316406 42.476562 90.316406 C 37.832031 90.316406 34.070312 87.429688 34.070312 83.871094 C 34.070312 80.3125 37.832031 77.425781 42.476562 77.425781 C 47.117188 77.425781 50.882812 80.3125 50.882812 83.871094 Z M 50.882812 83.871094 "/>
</g>
</svg>
